<svg width="16" height="16" viewBox="0 0 16 16" fill="none" xmlns="http://www.w3.org/2000/svg">
<rect width="16" height="16" rx="4" fill="#D9D9D9"/>
<path fill-rule="evenodd" clip-rule="evenodd" d="M8.25714 5.8H6.4V5.6C6.4 4.71634 7.11634 4 8 4H10.4C11.2837 4 12 4.71634 12 5.6V8C12 8.88366 11.2837 9.6 10.4 9.6H10.2V7.74286C10.2 6.66985 9.33015 5.8 8.25714 5.8ZM8 12H5.6C4.71634 12 4 11.2837 4 10.4V8C4 7.11634 4.71634 6.4 5.6 6.4H8C8.88366 6.4 9.6 7.11634 9.6 8V10.4C9.6 11.2837 8.88366 12 8 12Z" fill="black"/>
</svg>
