<svg width="16" height="16" viewBox="0 0 16 16" fill="none" xmlns="http://www.w3.org/2000/svg">
<rect width="16" height="16" rx="4" fill="#D9D9D9"/>
<path fill-rule="evenodd" clip-rule="evenodd" d="M10.7651 4.23483C10.6186 4.08839 10.3812 4.08839 10.2348 4.23483C10.0883 4.38128 10.0883 4.61872 10.2348 4.76517L10.5946 5.125H6.99992C5.68825 5.125 4.62492 6.18832 4.62492 7.5V8C4.62492 8.20711 4.79282 8.375 4.99992 8.375C5.20703 8.375 5.37492 8.20711 5.37492 8V7.5C5.37492 6.60254 6.10246 5.875 6.99992 5.875H10.5946L10.2348 6.23483C10.0883 6.38128 10.0883 6.61872 10.2348 6.76516C10.3812 6.91161 10.6186 6.91161 10.7651 6.76516L11.4115 6.11872C11.7532 5.77701 11.7532 5.22299 11.4115 4.88128L10.7651 4.23483ZM5.23476 11.7652C5.38121 11.9116 5.61864 11.9116 5.76509 11.7652C5.91154 11.6187 5.91154 11.3813 5.76509 11.2348L5.40525 10.875H8.99992C10.3116 10.875 11.3749 9.81168 11.3749 8.5V8C11.3749 7.79289 11.207 7.625 10.9999 7.625C10.7928 7.625 10.6249 7.79289 10.6249 8V8.5C10.6249 9.39746 9.89739 10.125 8.99992 10.125H5.40525L5.76509 9.76517C5.91154 9.61872 5.91154 9.38128 5.76509 9.23483C5.61864 9.08839 5.38121 9.08839 5.23476 9.23483L4.58831 9.88128C4.2466 10.223 4.2466 10.777 4.58831 11.1187L5.23476 11.7652Z" fill="black"/>
</svg>
