<svg width="16" height="16" viewBox="0 0 16 16" fill="none" xmlns="http://www.w3.org/2000/svg">
<rect width="16" height="16" rx="4" fill="#D9D9D9"/>
<path d="M10.5262 9.26442C10.077 9.26442 9.68454 9.50105 9.46096 9.85431L6.65083 8.44926C6.7043 8.30947 6.73676 8.15957 6.73676 8.00084C6.73676 7.84252 6.7043 7.6922 6.65083 7.55241L9.46096 6.14736C9.68496 6.50104 10.077 6.73725 10.5262 6.73725C11.2239 6.73725 11.7894 6.17178 11.7894 5.4741C11.7894 4.77641 11.2239 4.21094 10.5262 4.21094C9.82855 4.21094 9.26308 4.77641 9.26308 5.4741C9.26308 5.49557 9.26851 5.51579 9.26935 5.53684L6.27696 7.03284C6.05801 6.85095 5.78055 6.73684 5.47361 6.73684C4.77592 6.73684 4.21045 7.30232 4.21045 8C4.21045 8.69768 4.77592 9.26316 5.47361 9.26316C5.78055 9.26316 6.05801 9.14947 6.27696 8.96716L9.26935 10.4631C9.26851 10.4842 9.26308 10.5044 9.26308 10.5259C9.26308 11.2236 9.82855 11.789 10.5262 11.789C11.2239 11.789 11.7894 11.2236 11.7894 10.5259C11.7894 9.82821 11.2239 9.26442 10.5262 9.26442Z" fill="black"/>
</svg>
